PathFileType	4	(x/y/z)	S10_PSF_T11
DataRate	CameraRate	NumFrames	NumMarkers	Units	OrigDataRate	OrigDataStartFrame	OrigNumFrames
240	240	4	51	mm	240	116	460
Frame#	Time	Sternum			R.Acromium			L.Acromium			Top.Head			R.ASIS			L.ASIS			R.PSIS			L.PSIS			R.Great.Tro			L.Great.Tro			R.Iliac.Crest			L.Iliac.Crest			V.Sacral			R.Thigh.Upper.Post			R.Thigh.Lower.Ant			R.Thigh.Lower.Post			R.Thigh.Upper.Ant			R.Knee.Lat			R.Knee.Med			R.Shank.Upper.Post			R.Shank.Lower.Ant			R.Shank.Lower.Post			R.Shank.Upper.Ant			R.Ankle.Lat			R.Ankle.Med			R.Heel.Upper			R.Heel.Med			R.Heel.Lat			R.Toe.Lat			R.Toe.Med			R.Toe.Tip			L.Thigh.Upper.Post			L.Thigh.Lower.Ant			L.Thigh.Lower.Post			L.Thigh.Upper.Ant			L.Knee.Lat			L.Knee.Med			L.Shank.Upper.Post			L.Shank.Lower.Ant			L.Shank.Lower.Post			L.Shank.Upper.Ant			L.Ankle.Lat			L.Ankle.Med			L.Heel.Upper			L.Heel.Med			L.Heel.Lat			L.Toe.Lat			L.Toe.Med			L.Toe.Tip			Cervical.Spine			Back			
		X1	Y1	Z1	X2	Y2	Z2	X3	Y3	Z3	X4	Y4	Z4	X5	Y5	Z5	X6	Y6	Z6	X7	Y7	Z7	X8	Y8	Z8	X9	Y9	Z9	X10	Y10	Z10	X11	Y11	Z11	X12	Y12	Z12	X13	Y13	Z13	X14	Y14	Z14	X15	Y15	Z15	X16	Y16	Z16	X17	Y17	Z17	X18	Y18	Z18	X19	Y19	Z19	X20	Y20	Z20	X21	Y21	Z21	X22	Y22	Z22	X23	Y23	Z23	X24	Y24	Z24	X25	Y25	Z25	X26	Y26	Z26	X27	Y27	Z27	X28	Y28	Z28	X29	Y29	Z29	X30	Y30	Z30	X31	Y31	Z31	X32	Y32	Z32	X33	Y33	Z33	X34	Y34	Z34	X35	Y35	Z35	X36	Y36	Z36	X37	Y37	Z37	X38	Y38	Z38	X39	Y39	Z39	X40	Y40	Z40	X41	Y41	Z41	X42	Y42	Z42	X43	Y43	Z43	X44	Y44	Z44	X45	Y45	Z45	X46	Y46	Z46	X47	Y47	Z47	X48	Y48	Z48	X49	Y49	Z49	X50	Y50	Z50	X51	Y51	Z51	

116	0.47917	-850.63	1266.2	322.04	-994.06	1416.5	464.76	-938.81	1454.2	168.27	-1006	1737.5	347.86	-901.76	999.65	414.04	-903.75	1013.4	186.48	-1105.8	1016.1	327.79	-1108.1	1029.2	246.82	-965.89	920.2	485.84	-975.24	952.77	127.08	-1002.7	1077.4	457.83	-970.21	1089.1	160.76	-1126.3	988.43	290.37	-880.87	722.83	488.6	-800.04	671.91	450.65	-852.53	638.01	480.13	-827.89	758.98	452.91	-804.91	523.1	439.25	-801.13	525.35	310.5	-793.28	291.63	440.66	-708.54	257.77	437.17	-764.36	222.92	437.08	-732.95	331.06	440.07	-700.93	124.36	425.01	-687.26	141.15	347.97	-730.78	57.95	369.97	-708.53	38.946	343.21	-721.48	35.472	403.69	-564.95	87.721	470.09	-530.76	112.82	367.43	-490.17	149.12	415.22	-1081.8	698.06	143.76	-1032.5	601.66	168.18	-1107.2	607.21	167.85	-1004.3	684.35	144.03	-1098.9	511.93	178.61	-1082.3	511.11	307.5	-1204.1	318.62	192.47	-1162.5	217.57	215.16	-1219.1	242.5	208.96	-1149.1	291.32	199.15	-1222.1	115.35	231.28	-1203.5	130.03	319.21	-1292.7	89.672	280.83	-1285	56.649	312.24	-1289.9	61.302	248.24	-1116.4	41.114	204.58	-1086	44.327	313.7	-1031.3	49.246	264.18	-1049.6	1486.8	312.3	-1134.4	1280.4	280.26
117	0.48333	-845.28	1264.8	322.33	-988.7	1415.2	465.08	-933.32	1452.9	168.61	-1000.8	1736.2	348.2	-896.28	998.33	414.08	-898.27	1012.2	186.48	-1100.3	1014.8	327.97	-1102.8	1028	247.01	-960.45	918.8	485.99	-970.2	951.8	127.01	-997.26	1076	458	-964.52	1087.9	160.97	-1121	987.24	290.55	-876.46	720.88	488.66	-795.94	669.52	450.68	-848.7	635.88	479.97	-823.22	756.77	453.09	-800.71	521.48	438.8	-798.02	523.28	309.85	-785.22	290.29	440.56	-699.9	257.84	436.65	-755.14	222.04	436.94	-725.56	330.76	439.61	-689.88	124.4	424.72	-676.89	141.34	347.59	-718.9	57.308	369.99	-696.33	38.558	343.17	-708.94	35.026	403.74	-552.9	90.21	469.24	-519.64	115.72	366.36	-479.45	152.92	413.96	-1077.9	697.81	143.81	-1029.2	601.1	167.95	-1103.6	607.2	167.67	-1000.8	683.55	143.91	-1096	511.65	178.49	-1079.1	510.68	307.36	-1202.3	318.99	192.36	-1161.4	217.64	215.05	-1218	242.86	208.97	-1147.5	291.27	199.04	-1221.7	115.74	231.17	-1203	130.39	319.09	-1292.5	90.306	280.7	-1284.8	57.29	312.16	-1289.7	61.829	248.16	-1116.3	41.067	204.51	-1085.9	44.319	313.66	-1031.3	49.075	264.13	-1044.2	1485.6	312.57	-1129	1279.1	280.47
118	0.4875	-839.91	1263.4	322.64	-983.33	1413.8	465.4	-927.82	1451.6	168.97	-995.54	1735	348.54	-890.79	997.02	414.11	-892.78	1010.9	186.46	-1094.9	1013.5	328.16	-1097.5	1026.9	247.21	-954.97	917.42	486.14	-965.13	950.82	126.95	-991.79	1074.7	458.18	-958.8	1086.7	161.18	-1115.8	986.05	290.74	-871.91	719.02	488.71	-791.71	667.22	450.68	-844.7	633.84	479.82	-818.43	754.65	453.22	-796.41	519.91	438.38	-794.91	521.24	309.23	-777.39	289.02	440.45	-691.55	257.86	436.09	-746.25	221.21	436.78	-718.37	330.44	439.13	-679.34	124.45	424.36	-667.01	141.52	347.15	-707.64	56.754	369.93	-684.79	38.225	343.05	-697.03	34.654	403.7	-541.46	92.51	468.29	-509.12	118.38	365.19	-469.28	156.4	412.61	-1074	697.5	143.87	-1025.7	600.51	167.73	-1099.8	607.18	167.47	-997.1	682.74	143.8	-1092.9	511.35	178.4	-1075.8	510.21	307.25	-1200.5	319.36	192.25	-1160.2	217.7	214.94	-1216.9	243.25	208.96	-1145.9	291.21	198.94	-1221.2	116.15	231.05	-1202.5	130.76	318.97	-1292.3	90.976	280.55	-1284.7	57.962	312.06	-1289.6	62.381	248.05	-1116.3	41.02	204.44	-1085.9	44.317	313.61	-1031.2	48.905	264.08	-1038.8	1484.4	312.84	-1123.5	1277.9	280.71
119	0.49167	-834.52	1262	322.95	-977.93	1412.5	465.74	-922.31	1450.3	169.32	-990.31	1733.7	348.89	-885.28	995.71	414.15	-887.27	1009.7	186.43	-1089.4	1012.3	328.36	-1092.2	1025.7	247.42	-949.43	916.08	486.31	-960.03	949.82	126.9	-986.29	1073.3	458.36	-953.04	1085.5	161.4	-1110.6	984.84	290.94	-867.2	717.26	488.75	-787.34	665.04	450.63	-840.53	631.91	479.66	-813.52	752.63	453.31	-791.98	518.42	437.98	-791.76	519.27	308.65	-769.78	287.82	440.33	-683.51	257.83	435.47	-737.7	220.42	436.59	-711.36	330.09	438.62	-669.33	124.48	423.93	-657.66	141.65	346.63	-697.02	56.269	369.78	-673.92	37.928	342.84	-685.8	34.336	403.57	-530.64	94.58	467.24	-499.18	120.75	363.93	-459.65	159.51	411.18	-1070	697.15	143.95	-1022.1	599.91	167.53	-1095.9	607.15	167.24	-993.35	681.9	143.72	-1089.8	511.01	178.33	-1072.3	509.71	307.15	-1198.6	319.74	192.14	-1159	217.75	214.84	-1215.6	243.66	208.93	-1144.1	291.14	198.85	-1220.8	116.58	230.93	-1201.9	131.16	318.84	-1292	91.686	280.38	-1284.5	58.668	311.95	-1289.4	62.961	247.94	-1116.3	40.971	204.37	-1085.8	44.321	313.55	-1031.1	48.736	264.03	-1033.3	1483.3	313.14	-1117.9	1276.7	280.97
